<?xml version="1.0" ?>
<!DOCTYPE svg  PUBLIC '-//W3C//DTD SVG 1.1//EN'  'http://www.w3.org/Graphics/SVG/1.1/DTD/svg11.dtd'>
<!-- Uploaded to: SVG Repo, www.svgrepo.com, Generator: SVG Repo Mixer Tools -->
<svg width="800px" height="800px" viewBox="0 0 32 32" enable-background="new 0 0 32 32" version="1.1" xml:space="preserve" xmlns="http://www.w3.org/2000/svg" xmlns:xlink="http://www.w3.org/1999/xlink">
<g id="Home"/>
<g id="Print"/>
<g id="Mail"/>
<g id="Camera"/>
<g id="Video"/>
<g id="Film"/>
<g id="Message"/>
<g id="Telephone"/>
<g id="User"/>
<g id="File"/>
<g id="Folder"/>
<g id="Map"/>
<g id="Download"/>
<g id="Upload"/>
<g id="Video_Recorder"/>
<g id="Schedule"/>
<g id="Cart"/>
<g id="Setting"/>
<g id="Search"/>
<g id="Pencils"/>
<g id="Group"/>
<g id="Record"/>
<g id="Headphone"/>
<g id="Music_Player"/>
<g id="Sound_On"/>
<g id="Sound_Off"/>
<g id="Lock"/>
<g id="Lock_open"/>
<g id="Love"/>
<g id="Favorite"/>
<g id="Film_1_">
<path d="M16,1C7.7,1,1,7.7,1,16c0,5.5,3,10.4,7.5,13H2c-0.5,0-1,0.5-1,1s0.5,1,1,1h14c8.3,0,15-6.7,15-15   C31,7.7,24.3,1,16,1z" fill="#FFC10A"/>
<g>
<path d="M2,29c-0.5,0-1,0.5-1,1s0.5,1,1,1h14c-2.7,0-5.3-0.7-7.5-2H2z" fill="#3F51B5"/>
<path d="M16,19c1.7,0,3-1.4,3-3c0-1.7-1.3-3-3-3c-1.6,0-3,1.3-3,3C13,17.6,14.4,19,16,19z" fill="#3F51B5"/>
<path d="M16,20.5c-1,0-2.1,0.4-2.8,1.1c-0.8,0.8-1.2,1.8-1.2,2.8c0,1.1,0.4,2.1,1.2,2.8c0.8,0.8,1.8,1.2,2.8,1.2    s2.1-0.4,2.8-1.2c0.8-0.8,1.2-1.8,1.2-2.8c0-1.1-0.4-2.1-1.2-2.8C18.1,20.9,17,20.5,16,20.5z" fill="#3F51B5"/>
<path d="M27.3,13.2c-1.5-1.5-4.1-1.5-5.6,0c-0.8,0.8-1.2,1.8-1.2,2.8s0.4,2.1,1.2,2.8c0.8,0.8,1.8,1.2,2.8,1.2    c1.1,0,2.1-0.4,2.8-1.2c0.8-0.8,1.2-1.8,1.2-2.8S28.1,13.9,27.3,13.2z" fill="#3F51B5"/>
<path d="M7.5,20c1.1,0,2.1-0.4,2.8-1.2c0.8-0.8,1.2-1.8,1.2-2.8s-0.4-2.1-1.2-2.8c-1.5-1.5-4.1-1.5-5.7,0    c-0.8,0.8-1.2,1.8-1.2,2.8s0.4,2.1,1.2,2.8C5.4,19.6,6.5,20,7.5,20z" fill="#3F51B5"/>
<path d="M16,3.5c-1,0-2.1,0.4-2.8,1.1C12.4,5.4,12,6.5,12,7.5c0,1.1,0.4,2.1,1.2,2.8c0.8,0.8,1.8,1.2,2.8,1.2    s2.1-0.4,2.8-1.2C19.6,9.6,20,8.6,20,7.5c0-1.1-0.4-2.1-1.2-2.8C18.1,3.9,17,3.5,16,3.5z" fill="#3F51B5"/>
</g>
</g>
<g id="Music"/>
<g id="Puzzle"/>
<g id="Turn_Off"/>
<g id="Book"/>
<g id="Save"/>
<g id="Reload"/>
<g id="Trash"/>
<g id="Tag"/>
<g id="Link"/>
<g id="Like"/>
<g id="Bad"/>
<g id="Gallery"/>
<g id="Add"/>
<g id="Close"/>
<g id="Forward"/>
<g id="Back"/>
<g id="Buy"/>
<g id="Mac"/>
<g id="Laptop"/>
</svg>